<svg width="236" height="209" viewBox="0 0 236 209" fill="none" xmlns="http://www.w3.org/2000/svg">
<rect width="236" height="209" fill="#8585BC"/>
<g clip-path="url(#clip0_441_6076)">
<path d="M153.483 169.984H75.9308C72.0957 169.979 68.988 166.86 68.9855 163.011V133.094C68.825 133.278 68.657 133.459 68.4839 133.635V163.011C68.4864 167.137 71.8198 170.482 75.9308 170.487H153.701C153.626 170.321 153.553 170.152 153.483 169.984ZM68.9855 59.4032C68.988 55.5544 72.0957 52.4356 75.9308 52.4306H101.771C101.723 52.2619 101.678 52.0958 101.635 51.9271H75.9308C71.8198 51.9322 68.4864 55.2775 68.4839 59.4032V105.266C68.657 105.443 68.8225 105.624 68.9855 105.808V59.4032ZM173.117 65.2834L156.914 52.4029C156.528 52.0958 156.049 51.9271 155.554 51.9271H141.135C141.095 52.0958 141.049 52.2644 141.002 52.4306H155.554C155.936 52.4306 156.304 52.5589 156.603 52.7956L172.806 65.6786C173.117 65.9252 173.3 66.3028 173.298 66.7005V141.67C173.466 141.675 173.634 141.688 173.799 141.7V66.7005C173.802 66.1468 173.551 65.6257 173.117 65.2834Z" fill="#4A559D"/>
<path d="M172.904 65.9479H159.828C157.842 65.9479 156.229 64.3319 156.229 62.3357V52.6445C156.229 52.5187 156.329 52.418 156.455 52.418C156.505 52.418 156.555 52.4356 156.595 52.4658L173.044 65.5426C173.142 65.6207 173.157 65.7616 173.082 65.8598C173.037 65.9177 172.971 65.9479 172.904 65.9479Z" fill="#E6E6E6"/>
<path d="M172.904 66.1996H159.828C157.704 66.1971 155.981 64.4678 155.978 62.3357V52.6445C155.978 52.3802 156.191 52.1663 156.455 52.1663C156.563 52.1663 156.666 52.2015 156.751 52.2695L173.2 65.3463C173.405 65.5099 173.441 65.8095 173.278 66.0159C173.185 66.1342 173.049 66.1996 172.904 66.1996ZM156.48 52.6999V62.3383C156.482 64.1934 157.98 65.6962 159.828 65.6987H172.829L156.48 52.6999Z" fill="#4A559D"/>
<path d="M146.951 82.652H108.487C107.494 82.652 106.687 81.8465 106.687 80.8471C106.687 79.8503 107.489 79.0398 108.485 79.0398H108.487H146.949C147.942 79.0398 148.747 79.8503 148.747 80.8471C148.747 81.8439 147.942 82.652 146.951 82.652Z" fill="#B2B1D9"/>
<path d="M154.373 88.7461H108.487C107.494 88.7461 106.687 87.9406 106.687 86.9413C106.687 85.9444 107.489 85.1339 108.485 85.1339H108.487H154.373C155.366 85.1339 156.174 85.9394 156.174 86.9387C156.174 87.9355 155.371 88.7461 154.375 88.7461C154.375 88.7461 154.373 88.7461 154.373 88.7461Z" fill="#B2B1D9"/>
<path d="M146.951 109.966H108.488C107.494 109.966 106.689 109.156 106.689 108.159C106.689 107.162 107.494 106.356 108.488 106.354H146.949C147.942 106.354 148.747 107.164 148.747 108.161C148.747 109.158 147.942 109.964 146.951 109.966Z" fill="#B2B1D9"/>
<path d="M154.373 116.06H108.487C107.494 116.06 106.687 115.255 106.687 114.255C106.687 113.259 107.489 112.448 108.485 112.448H108.487H154.373C155.366 112.448 156.174 113.254 156.174 114.253C156.174 115.25 155.371 116.06 154.375 116.06C154.375 116.06 154.373 116.06 154.373 116.06Z" fill="#B2B1D9"/>
<path d="M146.951 137.278H108.488C107.494 137.278 106.689 136.47 106.689 135.473C106.689 134.476 107.494 133.668 108.488 133.668H146.949C147.942 133.668 148.747 134.476 148.747 135.473C148.747 136.47 147.944 137.278 146.951 137.278Z" fill="#B2B1D9"/>
<path d="M154.373 143.374H108.488C107.494 143.374 106.689 142.566 106.689 141.569C106.689 140.573 107.494 139.765 108.488 139.765H154.373C155.366 139.765 156.171 140.573 156.171 141.569C156.171 142.566 155.366 143.374 154.373 143.374Z" fill="#B2B1D9"/>
<path d="M98.7512 84.9154C99.314 81.4354 96.9591 78.1563 93.4914 77.5915C90.0237 77.0267 86.7564 79.39 86.1936 82.8701C85.6308 86.3502 87.9857 89.6292 91.4534 90.194C94.921 90.7588 98.1884 88.3955 98.7512 84.9154Z" fill="#5CC4AF"/>
<path d="M91.8404 86.3296C91.6974 86.3296 91.557 86.2843 91.4441 86.1962L91.4366 86.1911L89.9417 85.0433C89.6507 84.8193 89.5955 84.4014 89.8188 84.1094C90.042 83.8174 90.4584 83.762 90.7493 83.9861L91.7175 84.7312L94.005 81.7357C94.2282 81.4437 94.6446 81.3883 94.9355 81.6123L94.9205 81.6325L94.9355 81.6123C95.2265 81.8364 95.2817 82.2542 95.0584 82.5462L92.3671 86.0678C92.2442 86.2314 92.0486 86.3296 91.8404 86.3296Z" fill="white"/>
<path d="M92.4724 117.591C95.9854 117.591 98.8333 114.733 98.8333 111.207C98.8333 107.682 95.9854 104.823 92.4724 104.823C88.9594 104.823 86.1116 107.682 86.1116 111.207C86.1116 114.733 88.9594 117.591 92.4724 117.591Z" fill="#B2B1D9"/>
<path d="M91.8404 113.641C91.6974 113.641 91.557 113.596 91.4441 113.508L91.4366 113.503L89.9417 112.355C89.6507 112.131 89.5955 111.713 89.8188 111.421C90.042 111.129 90.4584 111.074 90.7493 111.298L91.7175 112.043L94.005 109.047C94.2282 108.755 94.6446 108.7 94.9355 108.924L94.9205 108.944L94.9355 108.924C95.2265 109.148 95.2817 109.566 95.0584 109.858L92.3671 113.379C92.2442 113.546 92.0486 113.641 91.8404 113.641Z" fill="white"/>
<path d="M92.4724 144.905C95.9854 144.905 98.8333 142.047 98.8333 138.521C98.8333 134.996 95.9854 132.138 92.4724 132.138C88.9594 132.138 86.1116 134.996 86.1116 138.521C86.1116 142.047 88.9594 144.905 92.4724 144.905Z" fill="#B2B1D9"/>
<path d="M91.8404 140.955C91.6974 140.955 91.557 140.91 91.4441 140.822L91.4366 140.817L89.9417 139.669C89.6507 139.445 89.5955 139.027 89.8188 138.735C90.042 138.443 90.4584 138.388 90.7493 138.612L91.7175 139.357L94.005 136.361C94.2282 136.069 94.6446 136.014 94.9355 136.238L94.9205 136.258L94.9355 136.238C95.2265 136.462 95.2817 136.88 95.0584 137.172L92.3671 140.694C92.2442 140.86 92.0486 140.955 91.8404 140.955Z" fill="white"/>
<path d="M173.799 141.232C173.634 141.22 173.466 141.209 173.298 141.202C172.959 141.184 172.618 141.177 172.274 141.177C160.767 141.177 151.438 150.538 151.438 162.087C151.438 164.793 151.963 167.476 152.981 169.984C153.049 170.152 153.119 170.321 153.194 170.487C154.917 174.406 157.792 177.704 161.431 179.942L161.564 180.02C161.677 180.088 161.787 180.153 161.898 180.213C162.086 180.327 162.274 180.432 162.465 180.536C162.595 180.604 162.725 180.672 162.853 180.737C164.301 181.477 165.828 182.043 167.408 182.424C167.734 182.504 168.06 182.575 168.394 182.635C169.673 182.879 170.973 183 172.274 183C172.603 183 172.929 182.992 173.258 182.977C173.714 182.957 174.168 182.919 174.617 182.869C175.161 182.809 175.698 182.726 176.23 182.622C177.301 182.416 178.352 182.124 179.378 181.751C179.508 181.701 179.638 181.653 179.764 181.603C180.115 181.469 180.456 181.326 180.795 181.172C181.166 181.004 181.532 180.825 181.891 180.636C185.495 178.741 188.472 175.839 190.466 172.279C190.477 172.259 190.487 172.241 190.497 172.224C196.077 162.13 192.448 149.403 182.39 143.802C179.746 142.33 176.814 141.454 173.799 141.232ZM192.29 165.926C191.886 168.038 191.154 170.072 190.115 171.952C190.098 171.985 190.08 172.017 190.063 172.048C188.111 175.554 185.174 178.409 181.617 180.254C181.261 180.44 180.9 180.614 180.536 180.777C180.233 180.913 179.922 181.044 179.608 181.165C179.478 181.215 179.342 181.268 179.21 181.313C178.324 181.638 177.416 181.9 176.493 182.094C175.808 182.24 175.116 182.351 174.421 182.421C173.992 182.469 173.559 182.502 173.12 182.517C172.839 182.529 172.558 182.537 172.274 182.537C171.015 182.537 169.759 182.418 168.519 182.184C167.767 182.046 167.022 181.862 166.29 181.636C165.174 181.291 164.092 180.85 163.052 180.319C162.931 180.256 162.811 180.193 162.693 180.128C162.522 180.037 162.352 179.944 162.186 179.846C162.061 179.775 161.935 179.7 161.812 179.627C161.74 179.584 161.67 179.541 161.597 179.496C158.133 177.346 155.384 174.21 153.701 170.487C153.626 170.321 153.553 170.152 153.483 169.984C149.138 159.567 154.029 147.588 164.409 143.228C166.899 142.181 169.573 141.642 172.274 141.642C172.618 141.642 172.959 141.65 173.298 141.67C173.466 141.675 173.634 141.688 173.799 141.7C185.029 142.554 193.441 152.383 192.591 163.65C192.533 164.416 192.433 165.173 192.29 165.926Z" fill="#3F3D56"/>
<path d="M121.38 26C109.877 26.0126 100.557 35.3665 100.542 46.9103C100.542 48.6019 100.75 50.2859 101.159 51.9271C101.201 52.0958 101.244 52.2644 101.289 52.4305C103.76 61.5227 111.989 67.8282 121.38 67.8232C130.771 67.8232 139.003 61.5201 141.483 52.4305C141.528 52.2619 141.571 52.0958 141.611 51.9271C144.365 40.7055 137.53 29.3705 126.351 26.6066C124.723 26.2039 123.055 26 121.38 26ZM141.135 51.9271C141.094 52.0958 141.049 52.2644 141.002 52.4305C137.959 63.3073 126.705 69.6507 115.867 66.5948C114.136 66.1065 112.478 65.3916 110.936 64.4703C106.466 61.7719 103.19 57.4675 101.771 52.4305C101.723 52.2619 101.678 52.0958 101.635 51.9271C101.216 50.2884 101.006 48.6019 101.006 46.9103C101.018 35.6182 110.151 26.4757 121.402 26.4883C132.654 26.5009 141.764 35.666 141.752 46.9582C141.749 48.6321 141.543 50.301 141.135 51.9271Z" fill="#3F3D56"/>
<path d="M68.9855 105.126C68.8249 104.949 68.6569 104.776 68.4838 104.607C60.3145 96.4815 47.1288 96.5419 39.0322 104.74C30.9357 112.939 30.9959 126.172 39.1652 134.297C46.0904 141.184 56.8507 142.33 65.0601 137.049C66.2941 136.253 67.4404 135.332 68.4838 134.297C68.6544 134.129 68.8224 133.958 68.9855 133.781C76.5402 125.734 76.5402 113.173 68.9855 105.126ZM68.4838 133.635C67.3827 134.781 66.1512 135.793 64.8168 136.653C64.8143 136.656 64.8118 136.656 64.8093 136.658C58.3054 140.837 50.0057 140.97 43.3714 137.001C43.3689 137.001 43.3689 136.998 43.3664 136.998C33.7022 131.216 30.5419 118.666 36.3033 108.967C42.0647 99.268 54.5707 96.0964 64.2349 101.878C65.795 102.812 67.2247 103.953 68.4838 105.267C68.6569 105.443 68.8224 105.624 68.9855 105.808C75.9207 113.571 75.9207 125.331 68.9855 133.094C68.8249 133.278 68.6569 133.459 68.4838 133.635Z" fill="#3F3D56"/>
<path d="M58 134.914L57.2586 133.22L49.8673 130L49.6945 130.005L48 130.919L53.2062 136.491C53.7915 137.094 54.806 137.174 55.4972 136.662L58 134.914Z" fill="white"/>
<path d="M63.8039 121.833L63.2724 120.991C63.2724 120.991 62.6221 115.536 62.5769 115.273C62.5203 114.934 62.4525 114.737 62.3507 114.425C62.3507 114.425 57.9004 109.687 55.9892 111.356C54.8017 112.39 54.7678 119.059 53.077 119.152C53.0318 119.152 52.7038 119.623 52.6868 119.623C51.6407 119.623 48.9944 120.701 49 121.598C49 122.173 50.6059 122.939 51.1375 123.239L49.2771 129.498L56.9505 133L58.8052 128.043C63.2498 127.162 63.1706 122.889 63.1706 122.889C63.1706 122.889 63.8209 122.599 63.9057 122.517C64.1036 122.309 63.9509 122.074 63.8039 121.833Z" fill="#DB8F90"/>
<path d="M52.9242 107.277C52.9242 107.277 59.0623 106.126 62.6259 110.242C62.6259 110.242 65.7177 114.16 62.6259 117.74L62.4895 116.764C62.4895 116.764 58.4258 117.503 57.0504 114.774C57.0504 114.774 59.1476 120.034 53.6914 120.716C53.3845 120.367 52.9412 120.141 52.4524 120.141C51.526 120.141 50.7758 120.925 50.7758 121.889C50.7758 122.853 51.526 123.637 52.4524 123.637C52.5036 123.637 52.5547 123.631 52.6059 123.631C52.6911 124.894 51.0543 127.115 49.5027 128L49.2072 125.92C47.2975 124.51 41.5004 119.437 42.0346 115.13C42.3245 112.767 43.7397 105.501 52.9242 107.277Z" fill="#2A3E40"/>
<path d="M45.8974 79.3243L45.3958 79.3193C45.4008 78.8158 45.4158 78.3048 45.4384 77.8014L45.94 77.824C45.9175 78.3225 45.9049 78.8259 45.8974 79.3243Z" fill="#E6E6E6"/>
<path d="M46.1608 74.9494L45.6616 74.894C45.767 73.9324 45.9024 72.9608 46.0705 72.0093L46.5646 72.0949C46.4015 73.0363 46.2636 73.9979 46.1608 74.9494ZM47.149 69.2756L46.6624 69.1573C46.8907 68.2184 47.149 67.2719 47.4374 66.3481L47.9165 66.4992C47.6331 67.4129 47.3747 68.3468 47.149 69.2756ZM48.8621 63.7756L48.3931 63.5943C48.7392 62.6906 49.1205 61.787 49.5243 60.9085L49.9808 61.1199C49.5795 61.9883 49.2032 62.8819 48.8621 63.7756ZM51.2675 58.5423L50.8261 58.3032C51.2851 57.4524 51.7792 56.6066 52.2934 55.786L52.7173 56.0528C52.2081 56.8633 51.7215 57.7016 51.2675 58.5423ZM54.3225 53.664L53.9162 53.3695C54.4805 52.5841 55.0775 51.8088 55.692 51.0637L56.0783 51.3834C55.4713 52.1209 54.8819 52.8862 54.3225 53.664ZM57.9745 49.2186L57.6083 48.8738C58.268 48.1689 58.9577 47.4767 59.6625 46.8147L60.0062 47.1822C59.3089 47.8342 58.6266 48.5213 57.9745 49.2186ZM62.1607 45.2767L61.8422 44.889C62.5846 44.2748 63.3597 43.6757 64.1397 43.1094L64.4332 43.5172C63.6606 44.076 62.8956 44.67 62.1607 45.2767ZM66.8135 41.9062L66.5476 41.4808C67.3628 40.9672 68.2056 40.4714 69.0533 40.0107L69.2916 40.4537C68.4539 40.9093 67.6186 41.3977 66.8135 41.9062ZM71.855 39.1624L71.6443 38.7043C72.5197 38.299 73.4176 37.9189 74.3156 37.5715L74.4962 38.0423C73.6083 38.3871 72.7204 38.7622 71.855 39.1624ZM77.2051 37.0958L77.0546 36.615C77.9751 36.3255 78.9157 36.0637 79.8512 35.8372L79.9691 36.3255C79.0436 36.5521 78.113 36.8088 77.2051 37.0958ZM82.7809 35.7365L82.6931 35.2406C83.6412 35.0745 84.6093 34.936 85.5675 34.8303L85.6227 35.3312C84.6746 35.4344 83.7189 35.5704 82.7809 35.7365Z" fill="#E6E6E6"/>
<path d="M88.5045 35.1071L88.4819 34.6037C88.9836 34.5811 89.4927 34.5659 89.9944 34.5609L89.9994 35.0644C89.5053 35.0719 89.0011 35.0845 88.5045 35.1071Z" fill="#E6E6E6"/>
<path d="M47.7509 77.7057L47.3922 77.3533L45.664 79.1279L44.0261 77.2677L43.6499 77.6025L45.6439 79.868L47.7509 77.7057Z" fill="#E6E6E6"/>
<path d="M88.3866 36.9246L88.0355 36.5646L89.8038 34.8303L87.9502 33.1865L88.2838 32.809L90.5412 34.8101L88.3866 36.9246Z" fill="#E6E6E6"/>
<path d="M163.438 40.0863C162.996 39.8522 162.552 39.6231 162.104 39.3991L162.329 38.9485C162.781 39.175 163.227 39.4066 163.674 39.6407L163.438 40.0863Z" fill="#E6E6E6"/>
<path d="M197.525 133.001L197.06 132.81C197.437 131.886 197.8 130.942 198.139 130.008L198.611 130.179C198.269 131.123 197.906 132.072 197.525 133.001ZM199.581 127.317L199.102 127.166C199.403 126.215 199.689 125.245 199.95 124.284L200.434 124.417C200.171 125.384 199.885 126.361 199.581 127.317ZM201.166 121.48L200.677 121.366C200.901 120.395 201.104 119.403 201.284 118.424L201.778 118.517C201.598 119.504 201.392 120.501 201.166 121.48ZM202.27 115.534L201.773 115.464C201.914 114.477 202.037 113.473 202.137 112.481L202.636 112.531C202.536 113.528 202.413 114.54 202.27 115.534ZM202.88 109.515L202.378 109.485C202.438 108.491 202.478 107.479 202.496 106.482L202.997 106.492C202.98 107.497 202.94 108.514 202.88 109.515ZM202.995 103.467L202.493 103.477C202.483 103.039 202.471 102.601 202.453 102.165C202.431 101.604 202.4 101.035 202.365 100.476L202.867 100.444C202.902 101.007 202.932 101.581 202.955 102.145C202.972 102.583 202.985 103.024 202.995 103.467ZM202.117 97.4808C202.014 96.489 201.889 95.4871 201.746 94.5004L202.242 94.4274C202.388 95.4192 202.513 96.4311 202.616 97.4279L202.117 97.4808ZM201.252 91.5352C201.069 90.556 200.863 89.5667 200.64 88.5951L201.129 88.4818C201.355 89.461 201.56 90.4578 201.746 91.442L201.252 91.5352ZM199.907 85.6802C199.644 84.7186 199.358 83.747 199.057 82.798L199.536 82.6444C199.84 83.601 200.126 84.5776 200.391 85.5467L199.907 85.6802ZM198.094 79.9535C197.755 79.0171 197.392 78.0732 197.013 77.1494L197.477 76.9581C197.856 77.8869 198.222 78.8359 198.565 79.7798L198.094 79.9535ZM195.819 74.3931C195.405 73.4869 194.966 72.5756 194.515 71.6871L194.961 71.458C195.415 72.3541 195.857 73.2704 196.273 74.1841L195.819 74.3931ZM193.103 69.0365C192.616 68.1655 192.104 67.2946 191.583 66.4463L192.009 66.182C192.533 67.0378 193.05 67.9138 193.539 68.7898L193.103 69.0365ZM189.957 63.919C189.4 63.0908 188.821 62.2652 188.232 61.4622L188.635 61.1627C189.23 61.9707 189.814 62.8039 190.374 63.6371L189.957 63.919ZM186.406 59.0759C185.784 58.2956 185.136 57.5203 184.484 56.7677L184.863 56.4379C185.52 57.1956 186.172 57.9759 186.799 58.7613L186.406 59.0759ZM182.468 54.5399C181.783 53.815 181.076 53.0951 180.361 52.3978L180.709 52.0378C181.427 52.7376 182.142 53.4626 182.829 54.1951L182.468 54.5399ZM178.171 50.3463C177.429 49.6792 176.664 49.0197 175.896 48.3854L176.215 47.9977C176.987 48.6371 177.76 49.3017 178.505 49.9712L178.171 50.3463ZM173.541 46.5227C172.751 45.9211 171.933 45.3295 171.115 44.7606L171.401 44.3478C172.224 44.9217 173.047 45.5183 173.842 46.1224L173.541 46.5227ZM168.62 43.0968C167.782 42.5631 166.922 42.0395 166.059 41.5386L166.31 41.1031C167.178 41.6066 168.045 42.1352 168.888 42.6714L168.62 43.0968Z" fill="#E6E6E6"/>
<path d="M195.681 137.152L195.229 136.933C195.448 136.48 195.661 136.027 195.867 135.571L196.323 135.78C196.115 136.238 195.899 136.696 195.681 137.152Z" fill="#E6E6E6"/>
<path d="M162.73 41.7803L163.204 41.6142L162.379 39.2732L164.765 38.6188L164.632 38.1329L161.727 38.9309L162.73 41.7803Z" fill="#E6E6E6"/>
<path d="M194.276 134.662L194.753 134.504L195.525 136.862L197.813 135.918L198.004 136.384L195.217 137.534L194.276 134.662Z" fill="#E6E6E6"/>
<mask id="mask0_441_6076" style="mask-type:alpha" maskUnits="userSpaceOnUse" x="102" y="28" width="39" height="39">
<circle cx="121.5" cy="47.5" r="19.5" fill="#C4C4C4"/>
</mask>
<g mask="url(#mask0_441_6076)">
<path d="M128.405 49.9106C128.753 48.9576 128.951 47.9428 128.951 46.8776C128.951 45.0388 128.382 43.3345 127.412 41.9049C127.418 41.8152 127.424 41.7311 127.424 41.6414C127.424 37.4198 123.883 34 119.512 34C115.14 34 111.599 37.4198 111.599 41.6414C111.599 41.7255 111.611 41.8095 111.611 41.8936C110.641 43.3288 110.067 45.0388 110.067 46.8776C110.067 47.9428 110.264 48.9632 110.612 49.9106C108.981 51.828 108 54.2835 108 56.9633C108 63.0966 113.149 69 119.5 69C125.851 69 131 63.0966 131 56.9633C131.017 54.2835 130.036 51.828 128.405 49.9106Z" fill="#2A3E40"/>
<path d="M126.7 56.9505L123.903 56.3185V53.5056C124.977 52.4579 125.643 51.0002 125.643 49.3774V45.5566L114.232 43V49.3774C114.232 51.245 115.119 52.902 116.487 53.9497L116.515 56.3242L114 57.0872L114.102 58.3057C114.379 61.6481 116.572 72 119.895 72C122.976 72 126.435 62.0069 127 58.9548L126.7 56.9505Z" fill="#BD7879"/>
<path d="M135 71.9943L133.196 60.1453C132.918 59.1007 132.095 58.2888 131.051 58.0163L126.547 57C126.536 57.0057 126.519 57.1703 126.507 57.4315C126.348 60.7074 123.631 63.2793 120.352 63.2793H119.966C116.573 63.2793 113.822 60.5314 113.811 57.1363C113.788 57.1476 111.048 57.6472 109.714 58.1412C108.602 58.55 107.814 59.4868 107.553 60.5825L105 72H135V71.9943Z" fill="#EBE9E5"/>
<path d="M124.029 34.2807L126.279 32.678C127.742 31.6303 128.053 29.6424 126.966 28.2265L123.877 30.4296C123.583 29.195 122.532 28.1982 121.151 28L120.576 31.6982C120.493 32.2419 120.558 32.7743 120.74 33.2613C120.499 33.2387 120.253 33.2273 120.006 33.2273C115.583 33.2273 112 36.682 112 40.9466C112 41.3034 112.035 41.6545 112.082 42C112.617 38.2395 115.953 35.3398 120 35.3398C124.047 35.3398 127.383 38.2395 127.918 42C127.965 41.6545 128 41.3034 128 40.9466C128.012 38.0979 126.408 35.6173 124.029 34.2807Z" fill="#69A1AF"/>
<path d="M134.028 98.8114C133.849 93.6721 133.167 90.1621 130.669 86.0976C130.34 85.5659 129.999 85.0114 129.647 84.4455L129.261 57.4745L127.401 57V65.4949H113.856V57.04L111.995 57.5145L111.319 84.8457C111.118 85.1601 110.9 85.5088 110.755 85.766C109.302 88.3442 108.436 91.4884 108.123 94.5811H108.106L108.095 94.9183C108.023 95.7587 107.989 96.5933 107.995 97.4051L107 122.33H110.157L113.085 154.989H119.382L120.98 122.558C120.986 122.478 121.008 122.404 121.036 122.335H122.668C122.685 122.375 122.696 122.415 122.707 122.461L129.261 154.989L136 155L134.028 98.8114Z" fill="#2A3E40"/>
</g>
<mask id="mask1_441_6076" style="mask-type:alpha" maskUnits="userSpaceOnUse" x="153" y="143" width="39" height="39">
<circle cx="172.5" cy="162.5" r="19.5" fill="#C4C4C4"/>
</mask>
<g mask="url(#mask1_441_6076)">
<path d="M172.024 169.634C177.803 169.634 182.488 164.949 182.488 159.171C182.488 153.392 177.803 148.707 172.024 148.707C166.246 148.707 161.561 153.392 161.561 159.171C161.561 164.949 166.246 169.634 172.024 169.634Z" fill="#2A3E40"/>
<path d="M165.736 173.109L159.658 223.801L159.907 228.61H186.293V224.138L180.192 172.94L172.883 171.537L165.736 173.109Z" fill="white"/>
<path d="M180.253 172.542L177.705 171.673V168.996L177.823 168.837C178.344 168.104 178.669 167.24 178.758 166.337L178.858 164.967C179.479 164.626 179.904 163.996 179.904 163.257C179.904 162.62 179.585 162.058 179.1 161.7L179.307 158.915C179.307 157.029 178.663 155.5 177.569 154.415C176.428 154.869 174.584 155.165 172.503 155.165C170.446 155.165 168.631 154.875 167.484 154.432C166.384 155.46 165.699 156.892 165.699 158.665L165.911 161.694C165.421 162.052 165.102 162.615 165.102 163.257C165.102 163.99 165.521 164.626 166.142 164.962L166.201 165.843C166.237 166.956 166.621 168.036 167.289 168.923L167.301 168.94V171.559L165.468 172.224L162.512 173.616L167.774 177.464C169.772 178.924 172.361 179.521 174.791 178.907C174.974 178.862 175.157 178.81 175.341 178.754C176.145 178.498 176.889 178.083 177.569 177.594L182.488 174.026L180.253 172.542Z" fill="#FDD2B3"/>
<path d="M153.589 183.35C153.399 183.94 153.268 184.548 153.167 185.156L150.743 202.728C150.013 209.236 149.543 211.662 151.866 215.148C154.058 218.436 159.285 217.446 159.285 217.446V222.877L165.231 222.9C168.059 222.964 168.219 221.661 168.219 220.127L165.701 172.488C165.701 172.488 162.897 173.293 159.98 175.261L157.901 176.877C156.096 178.492 154.468 180.611 153.589 183.35Z" fill="#69A1AF"/>
<path d="M175.727 159.171C174.218 159.171 172.975 160.267 172.794 161.675H172.206C172.025 160.267 170.782 159.171 169.273 159.171C167.645 159.171 166.317 160.453 166.317 162.024C166.317 163.601 167.645 164.878 169.273 164.878C170.782 164.878 172.025 163.781 172.206 162.374H172.794C172.975 163.781 174.218 164.878 175.727 164.878C177.361 164.878 178.683 163.596 178.683 162.024C178.683 160.453 177.355 159.171 175.727 159.171ZM169.279 164.18C168.047 164.18 167.046 163.214 167.046 162.024C167.046 160.835 168.047 159.869 169.279 159.869C170.511 159.869 171.511 160.835 171.511 162.024C171.511 163.214 170.505 164.18 169.279 164.18ZM175.727 164.18C174.495 164.18 173.495 163.214 173.495 162.024C173.495 160.835 174.495 159.869 175.727 159.869C176.959 159.869 177.96 160.835 177.96 162.024C177.96 163.214 176.959 164.18 175.727 164.18Z" fill="#2A3E40"/>
<path d="M190.988 185.625L191.049 220.169H186.034V224.779L182.773 224.803C179.883 224.867 179.634 223.554 179.634 222.007V172.488C179.634 172.488 180.211 172.564 181.109 172.815C186.987 174.478 190.976 179.73 190.988 185.625Z" fill="#69A1AF"/>
</g>
</g>
<defs>
<clipPath id="clip0_441_6076">
<rect width="170" height="157" fill="white" transform="translate(33 26)"/>
</clipPath>
</defs>
</svg>
